<svg version="1.1" id="Layer_1" xmlns="http://www.w3.org/2000/svg" xmlns:xlink="http://www.w3.org/1999/xlink" x="0px" y="0px"
	 width="100%" viewBox="0 0 793 800" enable-background="new 0 0 793 800" xml:space="preserve">
<path fill="#D12314" opacity="1.000000" stroke="none" 
	d="
M353.875366,107.186859 
	C360.964813,106.271530 368.054260,105.356209 375.857147,104.552582 
	C388.755707,104.752075 400.940857,104.839867 413.125977,104.927658 
	C420.508240,105.638336 427.890533,106.349007 436.003937,107.333305 
	C440.918243,108.085358 445.101410,108.563782 449.284576,109.042206 
	C449.284576,109.042206 449.599976,109.061729 450.005524,109.403297 
	C453.318115,110.168861 456.225159,110.592857 459.132202,111.016853 
	C463.171570,112.024376 467.210938,113.031898 471.950439,114.314110 
	C473.845642,114.735786 475.040649,114.882759 476.235687,115.029739 
	C476.235687,115.029739 476.555054,115.067856 476.852661,115.430969 
	C479.170197,116.210861 481.190186,116.627640 483.210144,117.044418 
	C483.556885,117.056290 483.903656,117.068161 484.694885,117.459946 
	C486.817902,118.241447 488.496429,118.643021 490.174957,119.044594 
	C497.082306,121.356079 504.171661,123.240005 510.852203,126.084190 
	C519.781616,129.885788 528.457153,134.307312 537.125061,138.693176 
	C546.231567,143.300995 555.771423,147.358780 564.093628,153.137665 
	C576.133484,161.498047 587.376770,171.034576 598.710999,180.371567 
	C605.891418,186.286758 612.953796,192.423920 619.452515,199.064957 
	C625.508484,205.253677 630.990906,212.053665 636.290588,218.920486 
	C643.975708,228.878204 652.066101,238.659500 658.516541,249.397324 
	C665.641968,261.258759 671.424988,273.971100 677.208618,286.580688 
	C682.394226,297.886261 687.372375,309.355438 691.390137,321.111908 
	C697.212280,338.148224 701.217834,355.693512 702.995361,373.683319 
	C703.510925,378.901672 704.270996,384.095825 704.645386,390.065399 
	C704.371765,397.870239 704.371765,404.910736 704.371765,411.951202 
	C703.490601,412.454041 702.609497,412.956879 701.728333,413.459717 
	C700.847473,411.841675 700.282471,409.911011 699.037598,408.653259 
	C684.431213,393.895386 669.763611,379.197205 655.022827,364.573486 
	C648.324707,357.928619 641.383728,351.529205 634.635376,344.934082 
	C629.087036,339.511658 623.636536,333.988190 618.186401,328.466400 
	C612.366394,322.569916 606.686584,316.531830 600.764709,310.740631 
	C598.241455,308.273102 595.258850,306.275360 592.253052,303.854004 
	C588.109436,295.619659 581.415100,292.855164 572.826111,292.860199 
	C455.506439,292.929260 338.186737,292.912750 220.867065,292.921143 
	C218.367661,292.921326 215.859436,292.840485 213.370377,293.013611 
	C203.322021,293.712555 194.686905,303.972076 196.463928,313.275757 
	C196.237946,352.664307 196.171036,391.597382 196.118210,430.530518 
	C196.117554,431.017548 196.297394,431.504852 196.185776,432.300903 
	C194.537079,433.411621 193.132721,434.290771 191.648636,435.003998 
	C154.077408,453.061218 137.320892,496.273071 152.901459,534.983337 
	C158.717667,549.433838 168.575699,560.645935 181.017746,570.205811 
	C181.890457,570.920715 182.651886,571.299866 183.430786,571.674927 
	C183.448242,571.670837 183.480484,571.655212 183.415543,572.007690 
	C183.650879,573.107422 183.757034,574.047302 184.279663,574.573975 
	C200.083847,590.502625 215.971710,606.348389 231.749512,622.302979 
	C239.447784,630.087402 246.838348,638.177429 254.577423,645.920044 
	C262.432556,653.778625 270.631042,661.293213 278.525696,669.113403 
	C291.167786,681.636169 303.719910,694.250549 316.216217,706.918762 
	C318.307953,709.039307 319.925476,711.627625 322.002258,714.309937 
	C319.764496,714.644348 318.381134,714.851135 316.997742,715.057800 
	C305.014404,711.347473 292.581573,708.668579 281.152191,703.687256 
	C263.634155,696.052124 246.474487,687.423767 229.809982,678.064514 
	C219.610550,672.336182 210.542297,664.558472 201.122818,657.492126 
	C196.663589,654.146912 192.571899,650.311646 188.052155,646.152588 
	C187.504211,645.400635 187.217804,645.194397 186.931396,644.988220 
	C186.931396,644.988220 187.003967,644.996887 186.945984,644.691040 
	C184.383408,641.609192 182.049026,638.648926 179.314392,636.121704 
	C177.490326,634.436035 175.096054,633.367310 172.956970,632.022461 
	C172.956970,632.022461 173.001984,632.001099 173.013412,631.663330 
	C171.675903,629.878296 170.326981,628.430969 168.978043,626.983704 
	C168.978043,626.983704 169.022598,626.980774 168.890945,626.810913 
	C168.561584,626.397888 168.322662,626.205994 168.042511,626.065430 
	C160.043900,616.540222 152.279373,606.805603 143.990387,597.540161 
	C132.289017,584.460266 124.850418,568.783752 116.378410,553.720276 
	C116.076218,553.182983 116.120743,552.450623 116.144318,551.176270 
	C113.834839,545.702087 111.384720,540.860962 108.934601,536.019775 
	C108.934601,536.019775 108.995949,536.006226 109.032272,535.633606 
	C107.695801,532.188599 106.323006,529.116272 104.950211,526.043884 
	C104.950211,526.043884 104.996719,526.000000 104.974915,525.680969 
	C104.607025,524.567932 104.260941,523.773987 103.914856,522.979980 
	C103.914856,522.979980 104.012794,522.984497 103.903275,522.852112 
	C103.640480,522.479797 103.444847,522.281738 103.206848,522.125549 
	C98.866402,506.911407 93.945450,491.831421 90.386978,476.436523 
	C87.963127,465.950317 87.202423,455.047394 86.145348,444.286865 
	C85.146088,434.114868 83.973000,423.866974 84.222137,413.685394 
	C84.688362,394.632507 86.130081,375.655975 89.774437,356.819672 
	C93.139175,339.428589 97.246162,322.319702 104.042427,305.990051 
	C109.547447,292.762939 115.825424,279.857513 122.177971,266.324524 
	C122.746628,265.486023 122.897873,265.132416 123.049118,264.778809 
	C123.049118,264.778809 123.065536,264.511597 123.306122,264.202789 
	C123.692177,263.574829 123.837631,263.255676 123.983093,262.936523 
	C123.983093,262.936523 123.988853,262.998749 124.305511,262.920258 
	C125.411186,261.206390 126.200203,259.571045 126.989227,257.935669 
	C126.989220,257.935669 126.996674,258.000000 127.298012,257.939850 
	C128.399994,256.217560 129.200638,254.555420 130.001282,252.893280 
	C135.976440,244.110565 141.951599,235.327850 148.401123,226.165131 
	C149.904404,224.166565 150.933304,222.548019 151.962204,220.929474 
	C151.962204,220.929474 151.987732,220.989975 152.198639,220.890152 
	C152.601746,220.504044 152.793945,220.217758 152.986130,219.931473 
	C152.986130,219.931473 152.997803,219.994278 153.204468,219.884064 
	C153.607712,219.493179 153.804260,219.212524 154.000824,218.931870 
	C154.000824,218.931870 153.993301,218.998611 154.305908,218.946564 
	C158.741745,213.913559 162.865005,208.932602 166.988251,203.951630 
	C166.988251,203.951630 167.005341,204.005814 167.211914,203.902435 
	C167.624268,203.532654 167.830048,203.266235 168.035828,202.999817 
	C168.035843,202.999817 168.026001,203.025909 168.356247,202.961731 
	C170.105118,200.919296 171.523727,198.941055 172.942352,196.962799 
	C172.942337,196.962799 172.984055,197.001678 173.331604,197.020874 
	C176.453247,194.363998 179.227341,191.687927 182.220215,188.888138 
	C182.634659,188.496552 182.830322,188.228699 183.026001,187.960846 
	C183.026001,187.960846 183.023346,188.027328 183.222549,187.908707 
	C183.620758,187.511734 183.819748,187.233398 184.018738,186.955063 
	C184.018753,186.955063 184.023102,187.019440 184.222916,186.900604 
	C184.616119,186.498154 184.809509,186.214539 185.002884,185.930908 
	C185.002884,185.930908 185.004211,186.003510 185.203217,185.890350 
	C185.601257,185.497299 185.800278,185.217422 185.999313,184.937531 
	C185.999313,184.937531 185.998932,185.003540 186.212509,184.908051 
	C186.615906,184.529434 186.805725,184.246307 186.995529,183.963181 
	C186.995529,183.963181 187.005188,184.006577 187.237610,183.924789 
	C187.640976,183.547821 187.811920,183.252640 187.982849,182.957443 
	C187.982849,182.957443 187.997223,183.002747 188.342010,183.010925 
	C190.119965,181.657379 191.553131,180.295624 192.986298,178.933868 
	C192.986313,178.933884 192.998474,178.994370 193.323746,178.998322 
	C195.103088,177.738892 196.557144,176.475494 198.011230,175.212128 
	C215.538284,160.371552 234.769745,148.340179 255.100021,137.543106 
	C270.456909,129.387314 286.296509,123.066444 302.673279,117.830078 
	C311.604370,114.974426 320.896637,113.248528 330.869415,111.018501 
	C334.493103,110.410652 337.273376,109.797417 340.053680,109.184189 
	C340.053680,109.184196 340.401031,109.057587 340.982330,109.076080 
	C343.056152,108.784843 344.548645,108.475105 346.041168,108.165375 
	C346.041168,108.165382 346.379272,108.043747 346.985565,108.070717 
	C349.686371,107.794075 351.780853,107.490471 353.875366,107.186859 
z"/>
<path fill="#A81513" opacity="1.000000" stroke="none" 
	d="
M317.207184,715.378052 
	C318.381134,714.851135 319.764496,714.644348 322.002258,714.309937 
	C319.925476,711.627625 318.307953,709.039307 316.216217,706.918762 
	C303.719910,694.250549 291.167786,681.636169 278.525696,669.113403 
	C270.631042,661.293213 262.432556,653.778625 254.577423,645.920044 
	C246.838348,638.177429 239.447784,630.087402 231.749512,622.302979 
	C215.971710,606.348389 200.083847,590.502625 184.279663,574.573975 
	C183.757034,574.047302 183.650879,573.107422 183.753418,572.066528 
	C217.537994,590.384949 254.731201,586.013489 280.422333,559.579895 
	C287.029358,552.781921 291.566284,543.972046 297.508728,536.191772 
	C346.560303,536.313660 395.157288,536.336304 443.754303,536.344666 
	C487.025604,536.352173 530.296936,536.365723 573.568237,536.327209 
	C584.437927,536.317566 591.181824,531.052612 593.593567,520.754700 
	C593.865845,519.724365 593.995850,519.062622 593.995544,518.400879 
	C593.965637,449.588745 593.925903,380.776581 593.818115,311.570343 
	C593.328003,308.805542 592.906494,306.434814 592.484985,304.064117 
	C595.258850,306.275360 598.241455,308.273102 600.764709,310.740631 
	C606.686584,316.531830 612.366394,322.569916 618.186401,328.466400 
	C623.636536,333.988190 629.087036,339.511658 634.635376,344.934082 
	C641.383728,351.529205 648.324707,357.928619 655.022827,364.573486 
	C669.763611,379.197205 684.431213,393.895386 699.037598,408.653259 
	C700.282471,409.911011 700.847473,411.841675 701.728333,413.459717 
	C702.609497,412.956879 703.490601,412.454041 704.371765,411.951202 
	C704.371765,404.910736 704.371765,397.870239 704.589478,390.506836 
	C705.167664,403.118164 706.330017,416.090607 705.715881,428.978363 
	C704.561157,453.209320 700.941956,477.180450 693.890991,500.459747 
	C690.412842,511.943085 686.868958,523.552063 681.795654,534.373169 
	C673.845703,551.329834 665.927429,568.583374 655.481201,584.008179 
	C645.097351,599.340881 634.834412,615.127930 620.768311,627.784973 
	C612.695862,635.048828 605.706848,643.533569 597.508728,650.635986 
	C589.443787,657.623047 580.532043,663.647400 571.867371,669.922180 
	C566.403564,673.878967 560.924133,677.892395 555.082642,681.235474 
	C534.142090,693.219910 512.783691,704.452209 489.395142,710.937195 
	C474.431458,715.086243 459.299805,718.730164 444.088531,721.843567 
	C436.404144,723.416321 428.386505,723.572998 420.500061,723.899231 
	C407.239166,724.447693 393.916656,725.458008 380.704956,724.731201 
	C365.480743,723.893738 350.326538,721.546875 335.187408,719.516602 
	C329.200775,718.713806 323.336578,716.998230 317.207184,715.378052 
z"/>
<path fill="#BD4640" opacity="1.000000" stroke="none" 
	d="
M166.667419,204.058762 
	C162.865005,208.932602 158.741745,213.913559 154.273346,218.938324 
	C158.067657,214.043381 162.207123,209.104630 166.667419,204.058762 
z"/>
<path fill="#B94A44" opacity="1.000000" stroke="none" 
	d="
M412.877106,104.566727 
	C400.940857,104.839867 388.755707,104.752075 376.230835,104.405991 
	C388.136780,104.167068 400.382507,104.186432 412.877106,104.566727 
z"/>
<path fill="#C2504B" opacity="1.000000" stroke="none" 
	d="
M173.055389,632.345215 
	C175.096054,633.367310 177.490326,634.436035 179.314392,636.121704 
	C182.049026,638.648926 184.383408,641.609192 186.941879,644.727417 
	C182.381760,640.935669 177.767761,636.801819 173.055389,632.345215 
z"/>
<path fill="#C6564C" opacity="1.000000" stroke="none" 
	d="
M108.954926,536.403076 
	C111.384720,540.860962 113.834839,545.702087 116.113663,550.799683 
	C113.619995,546.299500 111.297623,541.542969 108.954926,536.403076 
z"/>
<path fill="#C8534D" opacity="1.000000" stroke="none" 
	d="
M182.001450,189.011871 
	C179.227341,191.687927 176.453247,194.363998 173.316513,196.999054 
	C175.744385,194.060287 178.534882,191.162537 181.657425,188.431366 
	C181.989471,188.597931 182.001450,189.011871 182.001450,189.011871 
z"/>
<path fill="#C44640" opacity="1.000000" stroke="none" 
	d="
M449.072693,108.660797 
	C445.101410,108.563782 440.918243,108.085358 436.443726,107.395065 
	C440.388519,107.548599 444.624634,107.913994 449.072693,108.660797 
z"/>
<path fill="#C6564C" opacity="1.000000" stroke="none" 
	d="
M105.003883,526.419800 
	C106.323006,529.116272 107.695801,532.188599 109.014847,535.659790 
	C107.659920,532.971008 106.358734,529.883362 105.003883,526.419800 
z"/>
<path fill="#BD4640" opacity="1.000000" stroke="none" 
	d="
M172.610748,197.041245 
	C171.523727,198.941055 170.105118,200.919296 168.342743,202.965240 
	C169.425720,201.061844 170.852417,199.090775 172.610748,197.041245 
z"/>
<path fill="#BE443E" opacity="1.000000" stroke="none" 
	d="
M483.016113,116.700150 
	C481.190186,116.627640 479.170197,116.210861 477.001953,115.490738 
	C478.843140,115.576881 480.832611,115.966377 483.016113,116.700150 
z"/>
<path fill="#C44640" opacity="1.000000" stroke="none" 
	d="
M458.921143,110.669327 
	C456.225159,110.592857 453.318115,110.168861 450.152008,109.462517 
	C452.831970,109.560715 455.771027,109.941261 458.921143,110.669327 
z"/>
<path fill="#BD433D" opacity="1.000000" stroke="none" 
	d="
M129.672150,253.032028 
	C129.200638,254.555420 128.399994,256.217560 127.265778,257.936676 
	C127.735809,256.386017 128.539413,254.778397 129.672150,253.032028 
z"/>
<path fill="#C2504B" opacity="1.000000" stroke="none" 
	d="
M169.007202,627.330200 
	C170.326981,628.430969 171.675903,629.878296 173.000397,631.684631 
	C171.662766,630.588013 170.349564,629.132385 169.007202,627.330200 
z"/>
<path fill="#BD4C45" opacity="1.000000" stroke="none" 
	d="
M192.637543,178.948074 
	C191.553131,180.295624 190.119965,181.657379 188.324158,182.995117 
	C189.403961,181.634827 190.846390,180.298553 192.637543,178.948074 
z"/>
<path fill="#CA4A45" opacity="1.000000" stroke="none" 
	d="
M339.637421,109.116394 
	C337.273376,109.797417 334.493103,110.410652 331.285095,111.003189 
	C333.645325,110.337868 336.433228,109.693230 339.637421,109.116394 
z"/>
<path fill="#BD4C45" opacity="1.000000" stroke="none" 
	d="
M197.671646,175.131317 
	C196.557144,176.475494 195.103088,177.738892 193.293854,178.990723 
	C194.403152,177.669632 195.867615,176.360077 197.671646,175.131317 
z"/>
<path fill="#BD4640" opacity="1.000000" stroke="none" 
	d="
M151.662384,221.066772 
	C150.933304,222.548019 149.904404,224.166565 148.546417,225.841751 
	C149.265732,224.333618 150.314163,222.768829 151.662384,221.066772 
z"/>
<path fill="#BD433D" opacity="1.000000" stroke="none" 
	d="
M126.667145,258.064545 
	C126.200203,259.571045 125.411186,261.206390 124.276550,262.908508 
	C124.735641,261.381317 125.540344,259.787384 126.667145,258.064545 
z"/>
<path fill="#BE443E" opacity="1.000000" stroke="none" 
	d="
M489.992737,118.710136 
	C488.496429,118.643021 486.817902,118.241447 484.948853,117.516769 
	C486.442413,117.587677 488.126495,117.981674 489.992737,118.710136 
z"/>
<path fill="#CA4A45" opacity="1.000000" stroke="none" 
	d="
M353.460907,107.125763 
	C351.780853,107.490471 349.686371,107.794075 347.165161,108.066849 
	C348.841125,107.712234 350.943787,107.388443 353.460907,107.125763 
z"/>
<path fill="#CA4A45" opacity="1.000000" stroke="none" 
	d="
M345.634613,108.101997 
	C344.548645,108.475105 343.056152,108.784843 341.166931,109.067078 
	C342.256195,108.705933 343.742126,108.372276 345.634613,108.101997 
z"/>
<path fill="#BE443E" opacity="1.000000" stroke="none" 
	d="
M476.048431,114.686539 
	C475.040649,114.882759 473.845642,114.735786 472.363403,114.375275 
	C473.337891,114.222275 474.599518,114.282806 476.048431,114.686539 
z"/>
<path fill="#C6564C" opacity="1.000000" stroke="none" 
	d="
M103.957855,523.324219 
	C104.260941,523.773987 104.607025,524.567932 104.953781,525.702942 
	C104.636581,525.252136 104.318710,524.460266 103.957855,523.324219 
z"/>
<path fill="#C2504B" opacity="1.000000" stroke="none" 
	d="
M168.119873,626.297485 
	C168.322662,626.205994 168.561584,626.397888 168.890289,626.833252 
	C168.679153,626.972107 168.404465,626.806824 168.119873,626.297485 
z"/>
<path fill="#C2504B" opacity="1.000000" stroke="none" 
	d="
M187.010361,645.257568 
	C187.217804,645.194397 187.504211,645.400635 187.906738,645.850098 
	C187.711685,645.904541 187.400497,645.715698 187.010361,645.257568 
z"/>
<path fill="#C6564C" opacity="1.000000" stroke="none" 
	d="
M103.221710,522.357788 
	C103.444847,522.281738 103.640480,522.479797 103.901917,522.901123 
	C103.686737,523.021179 103.428902,522.857056 103.221710,522.357788 
z"/>
<path fill="#BD433D" opacity="1.000000" stroke="none" 
	d="
M122.755211,264.919373 
	C122.897873,265.132416 122.746628,265.486023 122.383835,266.041901 
	C122.268631,265.849426 122.364967,265.454712 122.755211,264.919373 
z"/>
<path fill="#BD433D" opacity="1.000000" stroke="none" 
	d="
M123.685524,263.024414 
	C123.837631,263.255676 123.692177,263.574829 123.348557,264.075806 
	C123.229591,263.875885 123.308777,263.494110 123.685524,263.024414 
z"/>
<path fill="#BD4640" opacity="1.000000" stroke="none" 
	d="
M152.710724,219.987366 
	C152.793945,220.217758 152.601746,220.504044 152.165817,220.890778 
	C152.093155,220.675217 152.264236,220.359238 152.710724,219.987366 
z"/>
<path fill="#BD4640" opacity="1.000000" stroke="none" 
	d="
M153.733917,218.999695 
	C153.804260,219.212524 153.607712,219.493179 153.172760,219.880402 
	C153.111893,219.680466 153.289444,219.373993 153.733917,218.999695 
z"/>
<path fill="#BD4640" opacity="1.000000" stroke="none" 
	d="
M167.771912,203.058258 
	C167.830048,203.266235 167.624268,203.532654 167.183533,203.901154 
	C167.135071,203.707733 167.321533,203.412216 167.771912,203.058258 
z"/>
<path fill="#BD4C45" opacity="1.000000" stroke="none" 
	d="
M182.220215,188.888138 
	C182.001450,189.011871 181.989471,188.597931 181.985962,188.390900 
	C182.153870,188.135330 182.325302,188.086777 182.761368,187.999527 
	C182.830322,188.228699 182.634659,188.496552 182.220215,188.888138 
z"/>
<path fill="#BD4C45" opacity="1.000000" stroke="none" 
	d="
M183.761719,187.040100 
	C183.819748,187.233398 183.620758,187.511734 183.189301,187.907532 
	C183.139481,187.725037 183.322098,187.425095 183.761719,187.040100 
z"/>
<path fill="#BD4C45" opacity="1.000000" stroke="none" 
	d="
M184.740372,186.012711 
	C184.809509,186.214539 184.616119,186.498154 184.190659,186.901459 
	C184.131683,186.712265 184.304779,186.403381 184.740372,186.012711 
z"/>
<path fill="#BD4C45" opacity="1.000000" stroke="none" 
	d="
M185.730194,185.005676 
	C185.800278,185.217422 185.601257,185.497299 185.166931,185.891235 
	C185.108109,185.694794 185.284592,185.384308 185.730194,185.005676 
z"/>
<path fill="#BD4C45" opacity="1.000000" stroke="none" 
	d="
M186.726669,184.019104 
	C186.805725,184.246307 186.615906,184.529434 186.179810,184.903442 
	C186.108307,184.687881 186.283066,184.381454 186.726669,184.019104 
z"/>
<path fill="#BD4C45" opacity="1.000000" stroke="none" 
	d="
M187.720154,183.019577 
	C187.811920,183.252640 187.640976,183.547821 187.216431,183.918045 
	C187.127701,183.689301 187.292587,183.385498 187.720154,183.019577 
z"/>
<path fill="#FEFEFE" opacity="1.000000" stroke="none" 
	d="
M592.253052,303.854004 
	C592.906494,306.434814 593.328003,308.805542 593.483154,311.624084 
	C592.333618,312.795898 591.482971,313.564392 590.562500,314.237305 
	C564.510132,333.282867 538.447937,352.314972 512.393066,371.357117 
	C475.050171,398.649200 437.644867,425.857025 400.465240,453.369812 
	C396.323517,456.434692 393.800537,456.386932 389.834290,453.442352 
	C359.241821,430.730347 328.519531,408.192749 297.784882,385.672852 
	C271.076660,366.103210 244.330521,346.584869 217.531830,327.139404 
	C210.697556,322.180328 203.600433,317.583557 196.624054,312.820343 
	C194.686905,303.972076 203.322021,293.712555 213.370377,293.013611 
	C215.859436,292.840485 218.367661,292.921326 220.867065,292.921143 
	C338.186737,292.912750 455.506439,292.929260 572.826111,292.860199 
	C581.415100,292.855164 588.109436,295.619659 592.253052,303.854004 
z"/>
<path fill="#F6F7F3" opacity="1.000000" stroke="none" 
	d="
M297.054199,536.086426 
	C291.566284,543.972046 287.029358,552.781921 280.422333,559.579895 
	C254.731201,586.013489 217.537994,590.384949 183.818359,571.714050 
	C183.480484,571.655212 183.448242,571.670837 183.275711,571.394409 
	C182.370941,570.701904 181.638702,570.285950 180.906464,569.869995 
	C168.575699,560.645935 158.717667,549.433838 152.901459,534.983337 
	C137.320892,496.273071 154.077408,453.061218 191.648636,435.003998 
	C193.132721,434.290771 194.537079,433.411621 196.350830,432.363586 
	C196.723099,432.117462 197.063324,432.025208 197.452789,432.009674 
	C206.784866,430.357361 215.725235,427.361053 224.670517,427.346313 
	C248.622177,427.306824 268.887756,436.502136 284.496185,455.032074 
	C296.986206,469.859894 303.658722,487.093506 302.710571,506.416382 
	C302.221954,516.374939 299.026520,526.200684 297.054199,536.086426 
M255.634109,565.211975 
	C266.934906,559.491028 275.834503,551.112793 282.364594,540.340942 
	C299.410095,512.223267 293.646179,475.927338 268.882141,454.482971 
	C244.354111,433.242950 207.730438,432.751984 182.359695,453.323090 
	C155.752365,474.896820 149.831299,513.159973 168.621414,542.102966 
	C187.194794,570.712097 224.573975,580.870300 255.634109,565.211975 
z"/>
<path fill="#B5BDC7" opacity="1.000000" stroke="none" 
	d="
M197.063324,432.025208 
	C197.063324,432.025208 196.723099,432.117462 196.558044,432.054749 
	C196.297394,431.504852 196.117554,431.017548 196.118210,430.530518 
	C196.171036,391.597382 196.237946,352.664307 196.463943,313.275757 
	C203.600433,317.583557 210.697556,322.180328 217.531830,327.139404 
	C244.330521,346.584869 271.076660,366.103210 297.784882,385.672852 
	C328.519531,408.192749 359.241821,430.730347 389.834290,453.442352 
	C393.800537,456.386932 396.323517,456.434692 400.465240,453.369812 
	C437.644867,425.857025 475.050171,398.649200 512.393066,371.357117 
	C538.447937,352.314972 564.510132,333.282867 590.562500,314.237305 
	C591.482971,313.564392 592.333618,312.795898 593.551758,312.018188 
	C593.925903,380.776581 593.965637,449.588745 593.995544,518.400879 
	C593.995850,519.062622 593.865845,519.724365 593.488525,520.298706 
	C593.134277,518.046509 593.048096,515.881653 593.047791,513.716797 
	C593.039856,452.553162 593.040405,391.389496 593.039612,330.225861 
	C593.039612,328.269958 593.039612,326.314087 593.039612,324.028198 
	C592.132629,324.392944 591.645508,324.485474 591.283325,324.749451 
	C576.786926,335.314148 562.306641,345.900848 547.813904,356.470642 
	C534.681885,366.048004 521.508789,375.569244 508.407623,385.188568 
	C495.435486,394.713165 482.567688,404.380035 469.582581,413.886749 
	C461.550659,419.767151 453.329559,425.388977 445.291565,431.261261 
	C429.591034,442.731506 413.927002,454.252441 398.329041,465.861542 
	C395.524963,467.948517 393.427460,467.675812 390.892242,465.459961 
	C387.271637,462.295410 383.479675,459.301727 379.578247,456.488403 
	C368.570923,448.551056 357.380402,440.865814 346.431610,432.849731 
	C335.167114,424.602539 324.183533,415.971924 312.926147,407.714722 
	C303.042389,400.465088 292.889648,393.583160 282.965332,386.387634 
	C271.562775,378.120270 260.275909,369.693176 248.947784,361.323242 
	C238.417694,353.542938 227.914627,345.725922 217.370392,337.964874 
	C210.876862,333.185333 204.328476,328.480316 197.727737,323.685913 
	C197.334702,324.471375 197.070404,324.752991 197.070297,325.034760 
	C197.055344,360.698242 197.059830,396.361725 197.063324,432.025208 
z"/>
<path fill="#A81513" opacity="1.000000" stroke="none" 
	d="
M181.017761,570.205811 
	C181.638702,570.285950 182.370941,570.701904 183.258240,571.398438 
	C182.651886,571.299866 181.890457,570.920715 181.017761,570.205811 
z"/>
<path fill="#D2D2D2" opacity="1.000000" stroke="none" 
	d="
M197.452789,432.009674 
	C197.059830,396.361725 197.055344,360.698242 197.070297,325.034760 
	C197.070404,324.752991 197.334702,324.471375 197.727737,323.685913 
	C204.328476,328.480316 210.876862,333.185333 217.370392,337.964874 
	C227.914627,345.725922 238.417694,353.542938 248.947784,361.323242 
	C260.275909,369.693176 271.562775,378.120270 282.965332,386.387634 
	C292.889648,393.583160 303.042389,400.465088 312.926147,407.714722 
	C324.183533,415.971924 335.167114,424.602539 346.431610,432.849731 
	C357.380402,440.865814 368.570923,448.551056 379.578247,456.488403 
	C383.479675,459.301727 387.271637,462.295410 390.892242,465.459961 
	C393.427460,467.675812 395.524963,467.948517 398.329041,465.861542 
	C413.927002,454.252441 429.591034,442.731506 445.291565,431.261261 
	C453.329559,425.388977 461.550659,419.767151 469.582581,413.886749 
	C482.567688,404.380035 495.435486,394.713165 508.407623,385.188568 
	C521.508789,375.569244 534.681885,366.048004 547.813904,356.470642 
	C562.306641,345.900848 576.786926,335.314148 591.283325,324.749451 
	C591.645508,324.485474 592.132629,324.392944 593.039612,324.028198 
	C593.039612,326.314087 593.039612,328.269958 593.039612,330.225861 
	C593.040405,391.389496 593.039856,452.553162 593.047791,513.716797 
	C593.048096,515.881653 593.134277,518.046509 593.285400,520.667358 
	C591.181824,531.052612 584.437927,536.317566 573.568237,536.327209 
	C530.296936,536.365723 487.025604,536.352173 443.754303,536.344666 
	C395.157288,536.336304 346.560303,536.313660 297.508728,536.191772 
	C299.026520,526.200684 302.221954,516.374939 302.710571,506.416382 
	C303.658722,487.093506 296.986206,469.859894 284.496185,455.032074 
	C268.887756,436.502136 248.622177,427.306824 224.670517,427.346313 
	C215.725235,427.361053 206.784866,430.357361 197.452789,432.009674 
z"/>
<path fill="#66AE89" opacity="1.000000" stroke="none" 
	d="
M255.307007,565.391846 
	C224.573975,580.870300 187.194794,570.712097 168.621414,542.102966 
	C149.831299,513.159973 155.752365,474.896820 182.359695,453.323090 
	C207.730438,432.751984 244.354111,433.242950 268.882141,454.482971 
	C293.646179,475.927338 299.410095,512.223267 282.364594,540.340942 
	C275.834503,551.112793 266.934906,559.491028 255.307007,565.391846 
M229.390060,532.899597 
	C242.956589,518.673828 256.601929,504.521606 270.009827,490.147858 
	C272.170441,487.831635 274.100861,484.684662 274.673004,481.645905 
	C275.550323,476.987061 272.950165,473.281403 268.770203,471.029175 
	C264.714386,468.843750 259.610657,469.767120 255.984360,473.524658 
	C243.953156,485.991425 231.890854,498.434021 220.148331,511.169708 
	C216.866302,514.729309 214.592804,515.218201 210.749481,512.086548 
	C204.818588,507.253998 198.525955,502.838074 192.182175,498.547943 
	C186.884018,494.964996 180.528778,496.118774 177.056091,500.840027 
	C173.556320,505.598236 174.289658,512.152893 179.381256,515.991699 
	C189.621109,523.712036 200.021164,531.229492 210.537384,538.569519 
	C215.857422,542.282715 220.683823,541.544678 225.442352,537.021667 
	C226.648270,535.875488 227.747467,534.617004 229.390060,532.899597 
z"/>
<path fill="#F7FCF9" opacity="1.000000" stroke="none" 
	d="
M229.142883,533.154907 
	C227.747467,534.617004 226.648270,535.875488 225.442352,537.021667 
	C220.683823,541.544678 215.857422,542.282715 210.537384,538.569519 
	C200.021164,531.229492 189.621109,523.712036 179.381256,515.991699 
	C174.289658,512.152893 173.556320,505.598236 177.056091,500.840027 
	C180.528778,496.118774 186.884018,494.964996 192.182175,498.547943 
	C198.525955,502.838074 204.818588,507.253998 210.749481,512.086548 
	C214.592804,515.218201 216.866302,514.729309 220.148331,511.169708 
	C231.890854,498.434021 243.953156,485.991425 255.984360,473.524658 
	C259.610657,469.767120 264.714386,468.843750 268.770203,471.029175 
	C272.950165,473.281403 275.550323,476.987061 274.673004,481.645905 
	C274.100861,484.684662 272.170441,487.831635 270.009827,490.147858 
	C256.601929,504.521606 242.956589,518.673828 229.142883,533.154907 
z"/>
</svg>