<svg version="1.1" id="Layer_1" xmlns="http://www.w3.org/2000/svg" xmlns:xlink="http://www.w3.org/1999/xlink" x="0px" y="0px"
	 width="100%" viewBox="0 0 593 370" enable-background="new 0 0 593 370" xml:space="preserve">
<path fill="#FFFFFF" opacity="1.000000" stroke="none" 
	d="
M429.000000,371.000000 
	C286.000000,371.000000 143.500000,371.000000 1.000000,371.000000 
	C1.000000,247.666672 1.000000,124.333336 1.000000,1.000000 
	C198.666672,1.000000 396.333344,1.000000 594.000000,1.000000 
	C594.000000,124.333336 594.000000,247.666672 594.000000,371.000000 
	C539.166687,371.000000 484.333344,371.000000 429.000000,371.000000 
M355.135498,346.641907 
	C359.158691,341.837616 363.181915,337.033356 367.286224,332.132202 
	C366.162964,331.081970 365.510895,330.313660 364.709015,329.763885 
	C363.772430,329.121765 362.705078,328.670410 361.694458,328.136322 
	C361.999817,327.688812 362.305176,327.241302 362.610565,326.793823 
	C383.605927,330.081940 403.476013,326.868225 421.968292,316.492645 
	C440.669403,305.999878 454.035400,290.661316 461.830719,270.699005 
	C475.396912,235.958649 466.395996,197.275040 438.963684,171.817810 
	C425.788086,159.590836 410.202332,152.030304 392.506042,149.166000 
	C368.591431,145.295166 346.591339,150.723602 326.197784,164.217148 
	C317.255035,120.421288 294.363708,86.749443 255.332352,65.421074 
	C216.196289,44.035480 175.310593,41.939705 134.004669,58.944469 
	C59.138199,89.765396 26.346071,178.459244 63.012447,250.888580 
	C81.334076,287.080475 110.286423,311.317169 149.284668,322.388153 
	C196.335144,335.744934 239.089554,325.605011 277.684174,295.921387 
	C289.515198,305.840271 301.252258,315.682404 312.991608,325.521881 
	C324.667664,335.308350 336.346069,345.092102 348.112793,354.951904 
	C350.604095,352.009735 352.645447,349.598938 355.135498,346.641907 
z"/>
<path fill="#6F29D9" opacity="1.000000" stroke="none" 
	d="
M354.911163,346.915039 
	C352.645447,349.598938 350.604095,352.009735 348.112793,354.951904 
	C336.346069,345.092102 324.667664,335.308350 312.991608,325.521881 
	C301.252258,315.682404 289.515198,305.840271 277.684174,295.921387 
	C239.089554,325.605011 196.335144,335.744934 149.284668,322.388153 
	C110.286423,311.317169 81.334076,287.080475 63.012447,250.888580 
	C26.346071,178.459244 59.138199,89.765396 134.004669,58.944469 
	C175.310593,41.939705 216.196289,44.035480 255.332352,65.421074 
	C294.363708,86.749443 317.255035,120.421288 326.197784,164.217148 
	C346.591339,150.723602 368.591431,145.295166 392.506042,149.166000 
	C410.202332,152.030304 425.788086,159.590836 438.963684,171.817810 
	C466.395996,197.275040 475.396912,235.958649 461.830719,270.699005 
	C454.035400,290.661316 440.669403,305.999878 421.968292,316.492645 
	C403.476013,326.868225 383.605927,330.081940 362.610565,326.793823 
	C362.305176,327.241302 361.999817,327.688812 361.694458,328.136322 
	C362.705078,328.670410 363.772430,329.121765 364.709015,329.763885 
	C365.510895,330.313660 366.162964,331.081970 367.286224,332.132202 
	C363.181915,337.033356 359.158691,341.837616 354.911163,346.915039 
M210.738647,90.682892 
	C164.867676,79.952744 117.344948,102.869583 97.664520,145.210526 
	C77.368950,188.874893 89.926949,239.500992 128.272659,268.168457 
	C166.273697,296.578278 215.753723,292.228546 245.740433,269.120667 
	C233.998016,259.245972 222.303879,249.411850 210.267761,239.290161 
	C216.763123,231.535812 223.042511,224.039291 229.504639,216.324600 
	C242.301529,227.042023 254.889465,237.584412 267.484924,248.133118 
	C309.942963,193.626587 283.955994,108.936646 210.738647,90.682892 
M328.106323,242.147400 
	C332.518738,273.400940 358.029602,292.562134 387.833893,287.008759 
	C412.385712,282.434052 429.908936,259.162781 427.890900,233.812134 
	C425.911713,208.950134 404.745239,188.698608 380.031006,188.021103 
	C349.963165,187.196823 327.473877,210.222321 328.106323,242.147400 
z"/>
<path fill="#FFFEFF" opacity="1.000000" stroke="none" 
	d="
M211.144623,90.778160 
	C283.955994,108.936646 309.942963,193.626587 267.484924,248.133118 
	C254.889465,237.584412 242.301529,227.042023 229.504639,216.324600 
	C223.042511,224.039291 216.763123,231.535812 210.267761,239.290161 
	C222.303879,249.411850 233.998016,259.245972 245.740433,269.120667 
	C215.753723,292.228546 166.273697,296.578278 128.272659,268.168457 
	C89.926949,239.500992 77.368950,188.874893 97.664520,145.210526 
	C117.344948,102.869583 164.867676,79.952744 211.144623,90.778160 
z"/>
<path fill="#FEFEFF" opacity="1.000000" stroke="none" 
	d="
M328.083191,241.689301 
	C327.473877,210.222321 349.963165,187.196823 380.031006,188.021103 
	C404.745239,188.698608 425.911713,208.950134 427.890900,233.812134 
	C429.908936,259.162781 412.385712,282.434052 387.833893,287.008759 
	C358.029602,292.562134 332.518738,273.400940 328.083191,241.689301 
z"/>
</svg>